# xmcd
#
# Track frame offsets:
#	150
#	13167
#	27947
#	40405
#	55887
#	70142
#	80132
#	92652
#	104840
#	117462
#	129012
#	140392
#
# Disc length: 2009 seconds
# Revision: 0
# Processed by: cddbd v1.5.2PL0 Copyright (c) Steve Scherf et al.
# Submitted via: dBpowerAMP V12.0
#
DISCID=a707d70c
DTITLE=Michelle Nixon and Drive - It's My Turn
DYEAR=2003
DGENRE=Country
TTITLE0=Harlan
TTITLE1=One Small Miracle
TTITLE2=The Writing's on the Wall
TTITLE3=Bees in the Hive
TTITLE4=Let Me Be Your Escort
TTITLE5=Couch Potato
TTITLE6=Step into the Water
TTITLE7=Beneath Still Waters
TTITLE8=It's in My Mind to Wander
TTITLE9=Hello Operator
TTITLE10=Joan Henry
TTITLE11=No Matter
EXTD=
EXTT0=
EXTT1=
EXTT2=
EXTT3=
EXTT4=
EXTT5=
EXTT6=
EXTT7=
EXTT8=
EXTT9=
EXTT10=
EXTT11=
PLAYORDER=
